<?xml version="1.0" encoding="UTF-8"?>
<svg id="Layer_2" data-name="Layer 2" xmlns="http://www.w3.org/2000/svg" viewBox="0 0 715.02 123.33">
  <defs>
    <style>
      .cls-1 {
        fill: #bc0f0f;
      }
    </style>
  </defs>
  <g id="Layer_1-2" data-name="Layer 1">
    <g>
      <g>
        <path class="cls-1" d="M103.97,110.71l-4.48-.28c-4.24-.3-6.3-2.64-6.3-7.13v-37.63c0-22.61-11.96-36.1-32-36.1-11.02,0-21.07,5.59-27.7,15.35V5.09c0-2.8-2.28-5.09-5.07-5.09H5.09C2.3,0,.02,2.28.02,5.09s2.09,4.9,4.76,5.07l4.48.28c4.24.3,6.3,2.64,6.3,7.13v85.76c0,4.49-2.06,6.81-6.3,7.13l-4.5.28c-2.67.17-4.76,2.39-4.76,5.07s2.28,5.09,5.07,5.09h39.38c2.8,0,5.07-2.28,5.07-5.09s-2.09-4.9-4.76-5.07l-4.48-.28c-4.24-.3-6.3-2.64-6.3-7.13v-33.95c0-15.59,9.15-26.9,21.78-26.9,11.7,0,18.98,8.97,18.98,23.39v37.46c0,4.57-1.89,6.83-5.94,7.13l-4.17.28c-2.65.17-4.74,2.41-4.74,5.09s2.28,5.09,5.07,5.09h38.68c2.8,0,5.07-2.28,5.07-5.09s-2.09-4.9-4.74-5.07l-.02-.04Z"/>
        <path class="cls-1" d="M691.63,115.05c-.33-2.36-2.41-4.2-4.94-4.36l-4.26-.26c-4.24-.3-6.3-2.64-6.3-7.13v-39.56c0-21.72-11.28-34.17-30.96-34.17-11.39,0-22.15,5.92-28.92,15.89v-8.52c0-2.8-2.28-5.09-5.07-5.09h-23.13c-2.8,0-5.07,2.28-5.07,5.09s2.09,4.9,4.76,5.07l4.48.28c4.24.3,6.3,2.64,6.3,7.13v53.91c0,4.49-2.04,6.81-6.24,7.13h-20.28c-4.24-.3-6.29-2.64-6.29-7.13v-39.56c0-21.72-11.28-34.17-30.96-34.17-11.39,0-22.15,5.92-28.92,15.89v-8.52c0-2.8-2.28-5.09-5.07-5.09h-23.13c-2.8,0-5.07,2.28-5.07,5.09s2.09,4.9,4.76,5.07l4.48.28c4.24.3,6.29,2.64,6.29,7.13v53.91c0,4.49-2.04,6.81-6.24,7.13h-19.72c-3.26,0-6.57-1.32-6.57-11.16v-39.2c0-18.82-13.26-30.5-34.63-30.5-11.83,0-22.18,4.4-29.14,12.38-5.24,5.88-6.35,11.19-6.35,14.63,0,6.52,4.22,10.9,10.54,10.9,4.78,0,9.98-3.43,10.18-9.82v-.26l-5.09-9.36c3.31-4.83,9.89-7.7,17.59-7.7,11.55,0,17.92,5.94,17.92,16.74v4.96c-10.04,3.75-20.92,8.04-29.13,11.53-18.24,8.22-26.03,16.84-26.03,28.85,0,12.68,9.13,20.88,23.28,20.88,13.33,0,25.22-7.63,32.7-20.96.91,12.46,7.8,18.51,21.07,18.51h57.64c2.8,0,5.07-2.28,5.07-5.09s-2.07-4.9-4.74-5.07l-3.98-.26c-4.05-.3-5.94-2.56-5.94-7.13v-33.95c0-15.33,10.04-26.9,23.35-26.9,11.05,0,17.4,7.76,17.4,21.29v39.56c0,4.49-2,6.81-6.11,7.13l-4,.26c-2.65.19-4.72,2.41-4.72,5.09s2.28,5.09,5.07,5.09h88.84c2.56,0,4.72-1.73,5.18-4.08.28-1.47-.05-2.93-.96-4.1-.89-1.15-2.24-1.88-3.68-1.97l-3.98-.26c-4.05-.3-5.94-2.56-5.94-7.13v-33.95c0-15.33,10.04-26.9,23.33-26.9,11.05,0,17.41,7.76,17.41,21.29v39.56c0,4.49-2,6.81-6.11,7.13l-4,.26c-2.65.19-4.72,2.41-4.72,5.09s2.28,5.09,5.07,5.09h38.68c1.46,0,2.85-.63,3.81-1.74.96-1.11,1.39-2.58,1.18-4.07l.02-.06ZM411.35,110.08c-6.85,0-10.94-3.9-10.94-10.45,0-7.31,4.63-12.94,15-18.25,6.26-2.97,13.87-6.03,21.2-8.93v6.16c0,16.47-12.04,31.45-25.26,31.45v.02Z"/>
        <path class="cls-1" d="M371.33,110.71l-4.24-.26c-4.24-.3-6.3-2.63-6.3-7.13v-39.56c0-21.72-10.65-34.17-29.2-34.17-11.55,0-22.61,7-28.94,18.3-4.13-11.97-13.37-18.3-26.76-18.3-10.61,0-20.42,5.59-27.02,15.35v-7.98c0-2.8-2.28-5.09-5.07-5.09h-23.13c-2.8,0-5.07,2.28-5.07,5.09s2.09,4.9,4.76,5.07l4.48.28c4.24.3,6.3,2.64,6.3,7.13v53.91c0,4.49-2.04,6.81-6.24,7.13h-21.29c-3.2,0-6.48-1.28-6.57-10.69v-62.84c0-2.8-2.28-5.09-5.07-5.09h-23.83c-2.8,0-5.07,2.28-5.07,5.09s2.09,4.9,4.76,5.07l4.48.28c4.24.3,6.3,2.64,6.3,7.13v33.43c0,12.94-9.39,27.42-21.94,27.42-10.72,0-16.89-8.41-16.89-23.06V31.85h-28.9c-2.8,0-5.07,2.28-5.07,5.09s2.09,4.9,4.76,5.07l4.48.28c4.24.3,6.3,2.64,6.3,7.13v37.79c0,22.61,11.18,36.11,29.9,36.11,10.78,0,21.24-6.57,28.07-17.6,1.87,10.19,8.61,15.17,20.63,15.17h59.23c2.8,0,5.07-2.28,5.07-5.1,0-2.67-2.07-4.88-4.72-5.07l-3.98-.26c-4.05-.3-5.94-2.56-5.94-7.13v-33.95c0-15.33,9.2-26.9,21.42-26.9,9.94,0,15.67,7.76,15.67,21.29v39.56c0,4.57-1.89,6.83-5.94,7.13l-4.17.28c-2.65.17-4.74,2.39-4.74,5.09s2.28,5.09,5.07,5.09h37.98c2.8,0,5.07-2.28,5.07-5.09s-2.07-4.9-4.74-5.07l-4.15-.28c-4.05-.3-5.94-2.56-5.94-7.13v-33.95c0-15.33,9.2-26.9,21.42-26.9,10.05,0,15.83,7.76,15.83,21.29v39.56c0,4.49-2,6.81-6.11,7.13l-3.98.26c-2.65.19-4.74,2.41-4.74,5.07,0,2.8,2.28,5.09,5.07,5.09h38.66c1.41,0,2.76-.59,3.72-1.63.96-1.06,1.45-2.41,1.33-3.86-.2-2.51-2.33-4.51-4.98-4.68h-.02Z"/>
      </g>
      <path class="cls-1" d="M696.54,44.36c-10.19,0-18.48-8.29-18.48-18.47s8.29-18.47,18.48-18.47,18.47,8.29,18.47,18.47-8.29,18.47-18.47,18.47ZM696.54,10.19c-8.65,0-15.7,7.05-15.7,15.7s7.05,15.7,15.7,15.7,15.7-7.05,15.7-15.7-7.05-15.7-15.7-15.7Z"/>
      <path class="cls-1" d="M689.44,35.82V15.94h8.19c1.85,0,3.31.46,4.39,1.36,1.09.92,1.62,2.2,1.62,3.87,0,1.22-.35,2.25-1.06,3.1-.71.85-1.54,1.42-2.5,1.74.97.17,1.75.65,2.32,1.46.58.81.85,1.84.85,3.11v5.25h-2.87v-4.68c0-1.4-.27-2.38-.82-2.94-.55-.56-1.5-.84-2.84-.84h-4.42v8.46h-2.87ZM697.01,24.8c1.2,0,2.11-.27,2.73-.81.62-.54.95-1.33.95-2.37s-.31-1.83-.95-2.35c-.64-.52-1.55-.8-2.73-.8h-4.7v6.34h4.7Z"/>
    </g>
  </g>
</svg>